<svg xmlns="http://www.w3.org/2000/svg" viewBox="0 0 64 64" fill="none">
  <circle cx="32" cy="32" r="30" fill="#1e3a28"/>
  <polygon points="32.00,50.75 31.70,49.99 31.41,49.23 31.11,48.47 30.81,47.71 30.52,46.95 30.22,46.19 29.93,45.43 29.63,44.67 29.33,43.91 29.04,43.15 28.74,42.39 28.44,41.63 28.15,40.87 27.85,40.11 27.56,39.35 27.26,38.59 26.96,37.83 26.67,37.07 26.37,36.31 26.07,35.55 25.78,34.79 25.48,34.03 25.19,33.27 24.89,32.51 24.59,31.75 24.30,30.99 24.00,30.23 23.70,29.47 23.20,28.87 22.67,28.30 22.10,27.75 21.48,27.24 20.83,26.76 20.12,26.32 19.37,25.92 18.54,25.58 17.62,25.30 16.58,25.12 15.31,25.13 12.76,26.12 12.76,26.12 11.17,28.36 10.86,29.59 10.78,30.64 10.83,31.60 10.97,32.48 11.17,33.32 11.43,34.11 11.73,34.86 12.08,35.58 12.47,36.26 12.90,36.92 13.36,37.55 14.03,38.02 14.69,38.50 15.36,38.97 16.02,39.44 16.69,39.91 17.36,40.38 18.02,40.85 18.69,41.32 19.35,41.79 20.02,42.27 20.68,42.74 21.35,43.21 22.01,43.68 22.68,44.15 23.35,44.62 24.01,45.09 24.68,45.57 25.34,46.04 26.01,46.51 26.67,46.98 27.34,47.45 28.01,47.92 28.67,48.39 29.34,48.86 30.00,49.34 30.67,49.81 31.33,50.28 32.00,50.75" fill="#d4e8c2"/>
  <polygon points="32.00,50.75 32.67,50.28 33.33,49.81 34.00,49.34 34.66,48.86 35.33,48.39 35.99,47.92 36.66,47.45 37.33,46.98 37.99,46.51 38.66,46.04 39.32,45.57 39.99,45.09 40.65,44.62 41.32,44.15 41.99,43.68 42.65,43.21 43.32,42.74 43.98,42.27 44.65,41.79 45.31,41.32 45.98,40.85 46.64,40.38 47.31,39.91 47.98,39.44 48.64,38.97 49.31,38.50 49.97,38.02 50.64,37.55 51.10,36.92 51.53,36.26 51.92,35.58 52.27,34.86 52.57,34.11 52.83,33.32 53.03,32.48 53.17,31.60 53.22,30.64 53.14,29.59 52.83,28.36 51.24,26.12 51.24,26.12 48.69,25.13 47.42,25.12 46.38,25.30 45.46,25.58 44.63,25.92 43.88,26.32 43.17,26.76 42.52,27.24 41.90,27.75 41.33,28.30 40.80,28.87 40.30,29.47 40.00,30.23 39.70,30.99 39.41,31.75 39.11,32.51 38.81,33.27 38.52,34.03 38.22,34.79 37.93,35.55 37.63,36.31 37.33,37.07 37.04,37.83 36.74,38.59 36.44,39.35 36.15,40.11 35.85,40.87 35.56,41.63 35.26,42.39 34.96,43.15 34.67,43.91 34.37,44.67 34.07,45.43 33.78,46.19 33.48,46.95 33.19,47.71 32.89,48.47 32.59,49.23 32.30,49.99 32.00,50.75" fill="#d4e8c2"/>
  <polygon points="32.00,50.75 32.20,49.83 32.39,48.91 32.59,47.98 32.79,47.06 32.98,46.14 33.18,45.22 33.38,44.30 33.57,43.38 33.77,42.45 33.96,41.53 34.16,40.61 34.36,39.69 34.55,38.77 34.75,37.84 34.95,36.92 35.14,36.00 35.34,35.08 35.54,34.16 35.73,33.23 35.93,32.31 36.12,31.39 36.32,30.47 36.52,29.55 36.71,28.62 36.91,27.70 37.11,26.78 37.30,25.86 37.50,24.94 37.48,24.02 37.42,23.09 37.33,22.17 37.19,21.25 37.00,20.33 36.76,19.41 36.47,18.48 36.10,17.56 35.64,16.64 35.04,15.72 34.20,14.80 32.00,13.88 32.00,13.88 29.80,14.80 28.96,15.72 28.36,16.64 27.90,17.56 27.53,18.48 27.24,19.41 27.00,20.33 26.81,21.25 26.67,22.17 26.58,23.09 26.52,24.02 26.50,24.94 26.70,25.86 26.89,26.78 27.09,27.70 27.29,28.62 27.48,29.55 27.68,30.47 27.88,31.39 28.07,32.31 28.27,33.23 28.46,34.16 28.66,35.08 28.86,36.00 29.05,36.92 29.25,37.84 29.45,38.77 29.64,39.69 29.84,40.61 30.04,41.53 30.23,42.45 30.43,43.38 30.62,44.30 30.82,45.22 31.02,46.14 31.21,47.06 31.41,47.98 31.61,48.91 31.80,49.83 32.00,50.75" fill="#d4e8c2"/>
  <line x1="14" y1="52" x2="50" y2="52" stroke="#d4e8c2" stroke-width="2" stroke-linecap="round"/>
</svg>
